<svg width="50" height="50" viewBox="0 0 80 80" fill="#B81E53" xmlns="http://www.w3.org/2000/svg">
<path d="M20 73.3333C17.2222 73.3333 14.8611 72.3611 12.9167 70.4166C10.9722 68.4722 10 66.1111 10 63.3333V16.6666C10 13.8888 10.9722 11.5277 12.9167 9.58329C14.8611 7.63885 17.2222 6.66663 20 6.66663H56.6667V60H20C19.0556 60 18.2639 60.3194 17.625 60.9583C16.9861 61.5972 16.6667 62.3888 16.6667 63.3333C16.6667 64.2777 16.9861 65.0694 17.625 65.7083C18.2639 66.3472 19.0556 66.6666 20 66.6666H63.3333V13.3333H70V73.3333H20ZM30 53.3333H50V13.3333H30V53.3333ZM23.3333 53.3333V13.3333H20C19.0556 13.3333 18.2639 13.6527 17.625 14.2916C16.9861 14.9305 16.6667 15.7222 16.6667 16.6666V53.9166C17.2222 53.75 17.7639 53.6111 18.2917 53.5C18.8194 53.3888 19.3889 53.3333 20 53.3333H23.3333Z" />
</svg>
