<svg width="33" height="30" viewBox="0 0 33 30" fill="none" xmlns="http://www.w3.org/2000/svg">
<path d="M16.5 3.33333C23.4266 3.33333 29.0417 8.55668 29.0417 15C29.0417 21.4433 23.4266 26.6667 16.5 26.6667C9.57343 26.6667 3.95833 21.4433 3.95833 15C3.95833 14.5047 3.99141 14.0173 4.05546 13.5395C4.1779 12.6262 3.48116 11.7933 2.49925 11.6795C1.51735 11.5656 0.622107 12.2137 0.499664 13.1272C0.417319 13.7413 0.375 14.3665 0.375 15C0.375 23.2843 7.59441 30 16.5 30C25.4057 30 32.625 23.2843 32.625 15C32.625 6.71573 25.4057 0 16.5 0C13.1854 0 10.1035 0.931333 7.54167 2.52625V1.66667C7.54167 0.7462 6.7395 0 5.75 0C4.7605 0 3.95833 0.7462 3.95833 1.66667V6.66667C3.95833 7.58713 4.7605 8.33333 5.75 8.33333H11.125C12.1145 8.33333 12.9167 7.58713 12.9167 6.66667C12.9167 5.7462 12.1145 5 11.125 5H10.0357C11.9237 3.9414 14.135 3.33333 16.5 3.33333ZM18.2917 8.33333C18.2917 7.41287 17.4895 6.66667 16.5 6.66667C15.5105 6.66667 14.7083 7.41287 14.7083 8.33333V15C14.7083 15.9205 15.5105 16.6667 16.5 16.6667H20.9792C21.9687 16.6667 22.7708 15.9205 22.7708 15C22.7708 14.0795 21.9687 13.3333 20.9792 13.3333H18.2917V8.33333Z" fill="#B81E53"/>
</svg>
