<svg width="33" height="32" viewBox="0 0 33 32" fill="none" xmlns="http://www.w3.org/2000/svg">
<path d="M19.0993 1.22201C17.5979 0.0436735 15.4021 0.0436735 13.9007 1.22201L1.80683 10.7129C0.898901 11.4254 0.375 12.4742 0.375 13.5792V29.0877C0.375 30.6985 1.77877 32.0044 3.51042 32.0044H8.88542C10.6171 32.0044 12.0208 30.6985 12.0208 29.0877V22.4167C12.0208 21.2845 12.9916 20.3634 14.2011 20.334H18.7989C20.0084 20.3634 20.9792 21.2845 20.9792 22.4167V29.0877C20.9792 30.6985 22.3829 32.0044 24.1146 32.0044H29.4896C31.2212 32.0044 32.625 30.6985 32.625 29.0877V13.5792C32.625 12.4742 32.1011 11.4254 31.1931 10.7129L19.0993 1.22201Z" fill="white"/>
</svg>
