<svg width="30" height="31" viewBox="0 0 30 31" fill="none" xmlns="http://www.w3.org/2000/svg">
<circle cx="15" cy="15.5" r="14.5" fill="white" stroke="#E9B9CA"/>
<path d="M19.556 14.7705C19.8329 14.7705 20.0617 14.9763 20.0979 15.2432L20.1029 15.3174V15.682C20.1029 18.2774 18.094 20.4036 15.5463 20.5905L15.5456 22.2445C15.5456 22.5465 15.3007 22.7913 14.9987 22.7913C14.7218 22.7913 14.493 22.5856 14.4568 22.3187L14.4518 22.2445V20.5906C11.9604 20.4081 9.98409 18.3711 9.89749 15.8543L9.89453 15.682V15.3174C9.89453 15.0154 10.1394 14.7705 10.4414 14.7705C10.7183 14.7705 10.9471 14.9763 10.9833 15.2432L10.9883 15.3174V15.682C10.9883 17.7433 12.6176 19.4241 14.6586 19.5069L14.8164 19.5101H15.181C17.2423 19.5101 18.9231 17.8808 19.0059 15.8398L19.0091 15.682V15.3174C19.0091 15.0154 19.254 14.7705 19.556 14.7705ZM14.9987 8.20801C16.6095 8.20801 17.9154 9.51384 17.9154 11.1247V15.4997C17.9154 17.1105 16.6095 18.4163 14.9987 18.4163C13.3879 18.4163 12.082 17.1105 12.082 15.4997V11.1247C12.082 9.51384 13.3879 8.20801 14.9987 8.20801Z" fill="#E9B9CA"/>
</svg>
