<svg width="42" height="60" viewBox="0 0 42 60" fill="none" xmlns="http://www.w3.org/2000/svg">
<path d="M39.2292 27.0833C40.3367 27.0833 41.2519 27.9064 41.3969 28.9739L41.4167 29.2708V30.7291C41.4167 41.1107 33.3813 49.6157 23.1905 50.3633L23.1875 56.9791C23.1875 58.1872 22.2081 59.1666 21 59.1666C19.8926 59.1666 18.9773 58.3436 18.8324 57.2761L18.8125 56.9791V50.3636C8.84696 49.6338 0.941628 41.4858 0.595215 31.4184L0.583374 30.7291V29.2708C0.583374 28.0627 1.56276 27.0833 2.77087 27.0833C3.87833 27.0833 4.79355 27.9064 4.9384 28.9739L4.95837 29.2708V30.7291C4.95837 38.9746 11.4755 45.6978 19.6397 46.0288L20.2709 46.0416H21.7292C29.9746 46.0416 36.6978 39.5246 37.0289 31.3603L37.0417 30.7291V29.2708C37.0417 28.0627 38.0211 27.0833 39.2292 27.0833ZM21 0.833313C27.4433 0.833313 32.6667 6.05665 32.6667 12.5V30C32.6667 36.4432 27.4433 41.6666 21 41.6666C14.5567 41.6666 9.33337 36.4432 9.33337 30V12.5C9.33337 6.05665 14.5567 0.833313 21 0.833313Z" fill="#CF688C"/>
</svg>
