<svg width="40" height="40" viewBox="0 0 40 40" fill="none" xmlns="http://www.w3.org/2000/svg">
<path d="M8.33333 16.6667C8.33333 12.0643 12.0643 8.33333 16.6667 8.33333C21.269 8.33333 25 12.0643 25 16.6667C25 21.269 21.269 25 16.6667 25C12.0643 25 8.33333 21.269 8.33333 16.6667ZM16.6667 5C10.2234 5 5 10.2234 5 16.6667C5 23.11 10.2234 28.3333 16.6667 28.3333C19.2872 28.3333 21.706 27.4693 23.6537 26.0107L32.1548 34.5118C32.8057 35.1627 33.861 35.1627 34.5118 34.5118C35.1627 33.861 35.1627 32.8057 34.5118 32.1548L26.0107 23.6537C27.4693 21.706 28.3333 19.2872 28.3333 16.6667C28.3333 10.2234 23.11 5 16.6667 5Z" fill="#8A8A8A"/>
<path d="M8.33333 16.6667C8.33333 12.0643 12.0643 8.33333 16.6667 8.33333C21.269 8.33333 25 12.0643 25 16.6667C25 21.269 21.269 25 16.6667 25C12.0643 25 8.33333 21.269 8.33333 16.6667ZM16.6667 5C10.2234 5 5 10.2234 5 16.6667C5 23.11 10.2234 28.3333 16.6667 28.3333C19.2872 28.3333 21.706 27.4693 23.6537 26.0107L32.1548 34.5118C32.8057 35.1627 33.861 35.1627 34.5118 34.5118C35.1627 33.861 35.1627 32.8057 34.5118 32.1548L26.0107 23.6537C27.4693 21.706 28.3333 19.2872 28.3333 16.6667C28.3333 10.2234 23.11 5 16.6667 5Z" fill="black" fill-opacity="0.2"/>
</svg>
