<svg width="20" height="18" viewBox="0 0 20 18" fill="none" xmlns="http://www.w3.org/2000/svg">
<path d="M13 1.24951C13 0.170889 11.7255 -0.40134 10.9195 0.31534L6.42794 4.30861C6.29065 4.43067 6.11333 4.4981 5.92961 4.4981H2.25C1.00736 4.4981 0 5.50546 0 6.7481V11.246C0 12.4886 1.00736 13.496 2.25 13.496H5.92956C6.11329 13.496 6.29063 13.5634 6.42793 13.6855L10.9194 17.6792C11.7255 18.396 13 17.8238 13 16.7451V1.24951ZM7.4246 5.42962L11.5 1.8063V16.1883L7.42465 12.5646C7.01275 12.1983 6.48074 11.996 5.92956 11.996H2.25C1.83579 11.996 1.5 11.6602 1.5 11.246V6.7481C1.5 6.33388 1.83579 5.9981 2.25 5.9981H5.92961C6.48075 5.9981 7.01272 5.79581 7.4246 5.42962ZM16.9916 2.89684C17.3244 2.6503 17.7941 2.72028 18.0407 3.05313C19.2717 4.71521 20 6.77341 20 8.9995C20 11.2256 19.2717 13.2838 18.0407 14.9459C17.7941 15.2788 17.3244 15.3488 16.9916 15.1022C16.6587 14.8557 16.5888 14.386 16.8353 14.0531C17.8815 12.6406 18.5 10.8934 18.5 8.9995C18.5 7.1057 17.8815 5.35848 16.8353 3.94592C16.5888 3.61307 16.6587 3.14338 16.9916 2.89684ZM15.143 5.36884C15.5072 5.17165 15.9624 5.30709 16.1596 5.67135C16.6958 6.66196 17 7.7963 17 8.9995C17 10.2027 16.6958 11.3371 16.1596 12.3277C15.9624 12.6919 15.5072 12.8274 15.143 12.6302C14.7787 12.433 14.6432 11.9778 14.8404 11.6136C15.2609 10.8368 15.5 9.9472 15.5 8.9995C15.5 8.0518 15.2609 7.1622 14.8404 6.38544C14.6432 6.02118 14.7787 5.56603 15.143 5.36884Z" fill="#B81E53"/>
</svg>
